<svg xmlns="http://www.w3.org/2000/svg" viewBox="0 0 32 32" aria-hidden="true" focusable="false">
  <path fill="#ffffff" d="M16.02 2.67C8.66 2.67 2.68 8.65 2.68 16c0 2.36.62 4.66 1.8 6.69l-1.81 6.64 6.81-1.78a13.25 13.25 0 0 0 6.54 1.78c7.36 0 13.33-5.98 13.33-13.33S23.38 2.67 16.02 2.67Zm0 24.2c-2.13 0-4.2-.62-5.97-1.78l-.43-.28-4.04 1.06 1.08-3.94-.28-.45A10.78 10.78 0 0 1 5.15 16c0-5.99 4.88-10.87 10.87-10.87S26.88 10.01 26.88 16 22.01 26.87 16.02 26.87Zm5.96-8.14c-.33-.16-1.95-.96-2.25-1.07-.3-.11-.52-.16-.74.16-.22.33-.85 1.07-1.04 1.29-.19.22-.38.25-.71.08-.33-.16-1.39-.51-2.65-1.63-.98-.87-1.64-1.95-1.83-2.28-.19-.33-.02-.51.14-.67.15-.15.33-.38.49-.57.16-.19.22-.33.33-.55.11-.22.05-.41-.03-.57-.08-.16-.74-1.78-1.01-2.44-.27-.64-.54-.55-.74-.56h-.63c-.22 0-.57.08-.87.41-.3.33-1.14 1.11-1.14 2.71s1.17 3.15 1.33 3.36c.16.22 2.3 3.51 5.56 4.92.78.34 1.38.54 1.86.69.78.25 1.49.21 2.05.13.63-.09 1.95-.8 2.22-1.57.27-.77.27-1.43.19-1.57-.08-.14-.3-.22-.63-.38Z"/>
</svg>
